<svg xmlns="http://www.w3.org/2000/svg" viewBox="0 0 1760 2420" width="1760" height="2420" font-family="Segoe UI, Arial, sans-serif" font-size="14">
  <title>Maquette PokéBistro — organisation de la landing page</title>
  <defs>
    <style>
      .frame { fill: #ffffff; stroke: #9ca3af; stroke-width: 2; }
      .zone { fill: #f3f4f6; stroke: #6b7280; stroke-width: 1.5; }
      .zone-yellow { fill: #fff3b0; stroke: #d4a800; stroke-width: 1.5; }
      .zone-blue { fill: #2a75bb; stroke: #1b2a4a; stroke-width: 1.5; }
      .zone-navy { fill: #1b2a4a; stroke: #1b2a4a; }
      .card { fill: #ffffff; stroke: #6b7280; stroke-width: 1.5; rx: 12; }
      .img { fill: #e5e7eb; stroke: #9ca3af; stroke-width: 1; stroke-dasharray: 4 3; }
      .btn { fill: #2a75bb; rx: 8; }
      .btn-yellow { fill: #ffcb05; rx: 8; }
      .btn-outline { fill: #ffffff; stroke: #e3350d; stroke-width: 1.5; rx: 8; }
      .chip { fill: #ffffff; stroke: #6b7280; stroke-width: 1; rx: 12; }
      .chip-on { fill: #ffcb05; stroke: #d4a800; stroke-width: 1; rx: 12; }
      .input { fill: #ffffff; stroke: #6b7280; stroke-width: 1.5; rx: 6; }
      .line { fill: #d1d5db; rx: 3; }
      .label { fill: #111827; font-weight: 700; }
      .tag { fill: #e3350d; font-weight: 700; font-size: 12px; }
      .small { fill: #374151; font-size: 12px; }
      .white { fill: #ffffff; }
      .title { fill: #111827; font-size: 26px; font-weight: 700; }
    </style>
  </defs>

  <!-- ===================== TITRE ===================== -->
  <text x="40" y="34" class="title">PokéBistro — maquette (wireframe) : desktop, mobile et modal panier</text>

  <!-- ===================== DESKTOP ===================== -->
  <rect x="40" y="60" width="1200" height="2300" class="frame"/>
  <text x="40" y="2385" class="small">Desktop ≥ 992 px (Bootstrap lg) — 1 seule page, navigation par ancres</text>

  <!-- HEADER -->
  <rect x="40" y="60" width="1200" height="72" class="zone-blue"/>
  <circle cx="86" cy="96" r="18" fill="#ffffff" stroke="#1b2a4a" stroke-width="3"/>
  <line x1="68" y1="96" x2="104" y2="96" stroke="#1b2a4a" stroke-width="3"/>
  <circle cx="86" cy="96" r="5" fill="#1b2a4a"/>
  <text x="114" y="103" class="white" font-size="22" font-weight="700">PokéBistro</text>
  <!-- NAV -->
  <text x="520" y="102" class="white" font-weight="600">Accueil</text>
  <text x="600" y="102" class="white" font-weight="600">Menu</text>
  <text x="670" y="102" class="white" font-weight="600">Catégories</text>
  <text x="770" y="102" class="white" font-weight="600">À propos</text>
  <text x="860" y="102" class="white" font-weight="600">Contact</text>
  <!-- CART BUTTON -->
  <rect x="1106" y="78" width="114" height="36" class="btn-yellow"/>
  <text x="1124" y="102" font-weight="700">Panier</text>
  <circle cx="1214" cy="80" r="12" fill="#e3350d"/>
  <text x="1210" y="85" class="white" font-size="12" font-weight="700">3</text>
  <text x="300" y="82" class="tag">HEADER (Bootstrap navbar, sticky)</text>
  <text x="520" y="82" class="tag">NAV (ancres)</text>
  <text x="1030" y="70" class="tag" text-anchor="end">Bouton panier + compteur</text>

  <!-- HERO -->
  <rect x="40" y="132" width="1200" height="400" class="zone-yellow"/>
  <text x="60" y="156" class="tag">HERO (Tailwind) — id="accueil"</text>
  <rect x="100" y="230" width="520" height="34" class="line"/>
  <text x="100" y="212" class="label" font-size="18">Titre : « Bienvenue au PokéBistro »</text>
  <rect x="100" y="280" width="440" height="14" class="line"/>
  <rect x="100" y="304" width="380" height="14" class="line"/>
  <text x="100" y="340" class="small">Phrase d'accroche (2 lignes)</text>
  <rect x="100" y="370" width="170" height="44" class="btn"/>
  <text x="122" y="398" class="white" font-weight="700">Voir le menu →</text>
  <rect x="290" y="370" width="150" height="44" class="btn-outline"/>
  <text x="318" y="398" fill="#e3350d" font-weight="700">À propos</text>
  <text x="100" y="440" class="small">CTA principal = ancre vers #menu</text>
  <circle cx="960" cy="332" r="150" fill="#ffffff" stroke="#d4a800" stroke-width="2" stroke-dasharray="6 4"/>
  <text x="960" y="326" text-anchor="middle" class="small">Visuel Pokémon</text>
  <text x="960" y="346" text-anchor="middle" class="small">(artwork officiel PokeAPI)</text>
  <text x="960" y="366" text-anchor="middle" class="small">fallback : pokeball.svg</text>

  <!-- MENU SECTION -->
  <text x="60" y="580" class="tag">SECTION MENU — id="menu"</text>
  <rect x="60" y="596" width="260" height="30" class="line"/>
  <text x="60" y="648" class="small">Titre « Notre menu » + compteur « 28 plats »</text>

  <!-- SIDEBAR -->
  <rect x="60" y="670" width="280" height="860" class="zone"/>
  <text x="74" y="692" class="tag">SIDEBAR (Bootstrap) — id="categories"</text>

  <!-- Bloc recherche -->
  <rect x="74" y="704" width="252" height="90" class="card"/>
  <text x="86" y="726" class="label">Recherche</text>
  <rect x="86" y="740" width="228" height="38" class="input"/>
  <text x="98" y="765" class="small">🔍  pikachu, burger, épicé…</text>
  <text x="86" y="790" class="small" font-size="10">titre + catégorie + mots-clés</text>

  <!-- Bloc catégories -->
  <rect x="74" y="806" width="252" height="270" class="card"/>
  <text x="86" y="828" class="label">Catégories</text>
  <rect x="86" y="842" width="228" height="30" fill="#2a75bb" rx="6"/>
  <text x="98" y="862" class="white" font-weight="600">Toutes</text>
  <rect x="86" y="876" width="228" height="30" class="input"/><text x="98" y="896" class="small">Bento</text>
  <rect x="86" y="910" width="228" height="30" class="input"/><text x="98" y="930" class="small">Burger</text>
  <rect x="86" y="944" width="228" height="30" class="input"/><text x="98" y="964" class="small">Bowl</text>
  <rect x="86" y="978" width="228" height="30" class="input"/><text x="98" y="998" class="small">Dessert</text>
  <rect x="86" y="1012" width="228" height="30" class="input"/><text x="98" y="1032" class="small">Boisson</text>
  <rect x="86" y="1046" width="228" height="24" class="input"/><text x="98" y="1063" class="small">Menu</text>

  <!-- Bloc tags -->
  <rect x="74" y="1088" width="252" height="120" class="card"/>
  <text x="86" y="1110" class="label">Tags</text>
  <rect x="86" y="1124" width="78" height="26" class="chip-on"/><text x="98" y="1142" class="small">populaire</text>
  <rect x="170" y="1124" width="60" height="26" class="chip"/><text x="182" y="1142" class="small">épicé</text>
  <rect x="236" y="1124" width="80" height="26" class="chip"/><text x="248" y="1142" class="small">végétarien</text>
  <rect x="86" y="1158" width="66" height="26" class="chip"/><text x="98" y="1176" class="small">dessert</text>
  <rect x="158" y="1158" width="70" height="26" class="chip"/><text x="170" y="1176" class="small">nouveau</text>

  <!-- Bloc prix -->
  <rect x="74" y="1220" width="252" height="190" class="card"/>
  <text x="86" y="1242" class="label">Prix</text>
  <circle cx="96" cy="1266" r="7" fill="#2a75bb"/><text x="112" y="1271" class="small">Tous les prix</text>
  <circle cx="96" cy="1294" r="7" class="input"/><text x="112" y="1299" class="small">Moins de 10 €</text>
  <circle cx="96" cy="1322" r="7" class="input"/><text x="112" y="1327" class="small">10 € à 15 €</text>
  <circle cx="96" cy="1350" r="7" class="input"/><text x="112" y="1355" class="small">15 € à 20 €</text>
  <circle cx="96" cy="1378" r="7" class="input"/><text x="112" y="1383" class="small">Plus de 20 €</text>

  <!-- Reset -->
  <rect x="74" y="1424" width="252" height="40" class="btn-outline"/>
  <text x="200" y="1450" text-anchor="middle" fill="#e3350d" font-weight="700">Réinitialiser les filtres</text>
  <text x="86" y="1500" class="small" font-size="11">Tous les blocs lisent / écrivent</text>
  <text x="86" y="1516" class="small" font-size="11">le FilterContext (useContext)</text>

  <!-- PRODUCT GRID -->
  <text x="360" y="692" class="tag">GRILLE DES PRODUITS (Bootstrap row / cols) — 3 colonnes en desktop</text>

  <!-- Card 1 (detailed) -->
  <rect x="360" y="704" width="280" height="400" class="card"/>
  <rect x="361" y="705" width="278" height="170" class="img"/>
  <text x="500" y="795" text-anchor="middle" class="small">Image (PokeAPI)</text>
  <rect x="372" y="716" width="60" height="20" fill="#f2c53d" rx="10"/>
  <text x="402" y="730" text-anchor="middle" font-size="10" font-weight="700">Électrik</text>
  <text x="374" y="900" class="label" font-size="16">Pikachu Bento</text>
  <text x="626" y="900" text-anchor="end" fill="#e3350d" font-weight="700" font-size="16">12,90 €</text>
  <text x="374" y="918" class="small" font-size="11">Catégorie : Bento</text>
  <rect x="374" y="930" width="252" height="10" class="line"/>
  <rect x="374" y="946" width="200" height="10" class="line"/>
  <text x="374" y="972" class="small" font-size="11">description courte</text>
  <rect x="374" y="984" width="70" height="22" class="chip"/><text x="384" y="1000" class="small" font-size="11">populaire</text>
  <rect x="450" y="984" width="50" height="22" class="chip"/><text x="460" y="1000" class="small" font-size="11">épicé</text>
  <text x="510" y="1000" class="small" font-size="10">← tags cliquables</text>
  <rect x="374" y="1020" width="150" height="36" class="btn"/>
  <text x="449" y="1044" text-anchor="middle" class="white" font-weight="700" font-size="13">+ Ajouter</text>
  <rect x="532" y="1020" width="94" height="36" class="btn-outline"/>
  <text x="579" y="1044" text-anchor="middle" fill="#e3350d" font-weight="700" font-size="13">− Retirer</text>
  <text x="374" y="1084" class="small" font-size="11">« 2 dans le panier » (feedback)</text>
  <text x="360" y="1122" class="tag">↑ PRODUCT CARD (détail)</text>

  <!-- Cards 2..6 (simplified) -->
  <g>
    <rect x="665" y="704" width="280" height="400" class="card"/>
    <rect x="666" y="705" width="278" height="170" class="img"/>
    <rect x="680" y="900" width="150" height="14" class="line"/><rect x="880" y="900" width="50" height="14" class="line"/>
    <rect x="680" y="930" width="250" height="10" class="line"/><rect x="680" y="946" width="180" height="10" class="line"/>
    <rect x="680" y="984" width="70" height="22" class="chip"/><rect x="756" y="984" width="60" height="22" class="chip"/>
    <rect x="680" y="1020" width="150" height="36" class="btn"/><rect x="838" y="1020" width="94" height="36" class="btn-outline"/>
  </g>
  <g>
    <rect x="970" y="704" width="270" height="400" class="card"/>
    <rect x="971" y="705" width="268" height="170" class="img"/>
    <rect x="985" y="900" width="150" height="14" class="line"/><rect x="1175" y="900" width="50" height="14" class="line"/>
    <rect x="985" y="930" width="240" height="10" class="line"/><rect x="985" y="946" width="180" height="10" class="line"/>
    <rect x="985" y="984" width="70" height="22" class="chip"/>
    <rect x="985" y="1020" width="140" height="36" class="btn"/><rect x="1133" y="1020" width="94" height="36" class="btn-outline"/>
  </g>
  <g>
    <rect x="360" y="1130" width="280" height="400" class="card"/>
    <rect x="361" y="1131" width="278" height="170" class="img"/>
    <rect x="374" y="1326" width="150" height="14" class="line"/><rect x="574" y="1326" width="50" height="14" class="line"/>
    <rect x="374" y="1356" width="250" height="10" class="line"/><rect x="374" y="1372" width="180" height="10" class="line"/>
    <rect x="374" y="1410" width="70" height="22" class="chip"/>
    <rect x="374" y="1446" width="150" height="36" class="btn"/><rect x="532" y="1446" width="94" height="36" class="btn-outline"/>
  </g>
  <g>
    <rect x="665" y="1130" width="280" height="400" class="card"/>
    <rect x="666" y="1131" width="278" height="170" class="img"/>
    <rect x="680" y="1326" width="150" height="14" class="line"/><rect x="880" y="1326" width="50" height="14" class="line"/>
    <rect x="680" y="1356" width="250" height="10" class="line"/><rect x="680" y="1372" width="180" height="10" class="line"/>
    <rect x="680" y="1410" width="70" height="22" class="chip"/><rect x="756" y="1410" width="60" height="22" class="chip"/>
    <rect x="680" y="1446" width="150" height="36" class="btn"/><rect x="838" y="1446" width="94" height="36" class="btn-outline"/>
  </g>
  <g>
    <rect x="970" y="1130" width="270" height="400" class="card"/>
    <rect x="971" y="1131" width="268" height="170" class="img"/>
    <rect x="985" y="1326" width="150" height="14" class="line"/><rect x="1175" y="1326" width="50" height="14" class="line"/>
    <rect x="985" y="1356" width="240" height="10" class="line"/><rect x="985" y="1372" width="180" height="10" class="line"/>
    <rect x="985" y="1410" width="70" height="22" class="chip"/>
    <rect x="985" y="1446" width="140" height="36" class="btn"/><rect x="1133" y="1446" width="94" height="36" class="btn-outline"/>
  </g>
  <text x="360" y="1556" class="small">Si aucun produit ne correspond : message « Aucun plat ne correspond à vos filtres » + bouton Réinitialiser.</text>

  <!-- ABOUT -->
  <rect x="40" y="1590" width="1200" height="280" class="zone"/>
  <text x="60" y="1612" class="tag">À PROPOS (Tailwind) — id="a-propos"</text>
  <rect x="100" y="1650" width="300" height="26" class="line"/>
  <rect x="100" y="1696" width="520" height="12" class="line"/>
  <rect x="100" y="1718" width="500" height="12" class="line"/>
  <rect x="100" y="1740" width="460" height="12" class="line"/>
  <rect x="100" y="1780" width="160" height="60" class="card"/><text x="180" y="1815" text-anchor="middle" class="small">28 plats</text>
  <rect x="280" y="1780" width="160" height="60" class="card"/><text x="360" y="1815" text-anchor="middle" class="small">6 catégories</text>
  <rect x="460" y="1780" width="160" height="60" class="card"/><text x="540" y="1815" text-anchor="middle" class="small">100 % fictif</text>
  <rect x="760" y="1640" width="420" height="200" class="img"/>
  <text x="970" y="1745" text-anchor="middle" class="small">Visuel / illustration Pokémon</text>

  <!-- CONTACT -->
  <rect x="40" y="1890" width="1200" height="320" class="zone-yellow"/>
  <text x="60" y="1912" class="tag">CONTACT (Tailwind) — id="contact"</text>
  <rect x="100" y="1950" width="240" height="26" class="line"/>
  <text x="100" y="2010" class="small">Adresse fictive · Horaires · Téléphone</text>
  <rect x="100" y="2030" width="360" height="12" class="line"/>
  <rect x="100" y="2052" width="300" height="12" class="line"/>
  <rect x="100" y="2074" width="330" height="12" class="line"/>
  <rect x="700" y="1950" width="480" height="38" class="input"/><text x="712" y="1975" class="small">Nom</text>
  <rect x="700" y="2000" width="480" height="38" class="input"/><text x="712" y="2025" class="small">Email</text>
  <rect x="700" y="2050" width="480" height="80" class="input"/><text x="712" y="2075" class="small">Message</text>
  <rect x="700" y="2144" width="160" height="40" class="btn"/>
  <text x="780" y="2170" text-anchor="middle" class="white" font-weight="700">Envoyer</text>
  <text x="880" y="2170" class="small" font-size="11">formulaire de démo (pas de backend)</text>

  <!-- FOOTER -->
  <rect x="40" y="2230" width="1200" height="130" class="zone-navy"/>
  <text x="60" y="2252" class="tag" fill="#ffcb05">FOOTER (Bootstrap grid)</text>
  <text x="100" y="2290" class="white" font-weight="700" font-size="18">PokéBistro</text>
  <text x="100" y="2312" class="white" font-size="12">Le restaurant des dresseurs gourmands.</text>
  <text x="520" y="2290" class="white" font-weight="700">Liens</text>
  <text x="520" y="2312" class="white" font-size="12">Menu · À propos · Contact</text>
  <text x="820" y="2290" class="white" font-weight="700">Infos fictives</text>
  <text x="820" y="2312" class="white" font-size="12">12 rue du Bourg Palette · 7j/7</text>
  <text x="640" y="2348" text-anchor="middle" class="white" font-size="12">© {new Date().getFullYear()} PokéBistro — année dynamique</text>

  <!-- ===================== MOBILE ===================== -->
  <rect x="1300" y="60" width="400" height="1240" class="frame" rx="24"/>
  <text x="1300" y="1325" class="small">Mobile &lt; 992 px : tout en colonne, filtres repliables</text>

  <rect x="1300" y="60" width="400" height="60" class="zone-blue"/>
  <circle cx="1332" cy="90" r="12" fill="#ffffff" stroke="#1b2a4a" stroke-width="2"/>
  <text x="1352" y="96" class="white" font-weight="700" font-size="16">PokéBistro</text>
  <rect x="1570" y="76" width="50" height="28" class="btn-yellow"/><text x="1580" y="95" font-size="11" font-weight="700">Panier</text>
  <circle cx="1620" cy="76" r="8" fill="#e3350d"/>
  <rect x="1640" y="78" width="40" height="4" fill="#ffffff"/><rect x="1640" y="88" width="40" height="4" fill="#ffffff"/><rect x="1640" y="98" width="40" height="4" fill="#ffffff"/>
  <text x="1310" y="138" class="tag">Header + burger (menu déroulant via useState)</text>

  <rect x="1300" y="150" width="400" height="280" class="zone-yellow"/>
  <text x="1310" y="170" class="tag">Hero empilé</text>
  <circle cx="1500" cy="240" r="55" fill="#ffffff" stroke="#d4a800" stroke-width="2" stroke-dasharray="6 4"/>
  <rect x="1340" y="312" width="320" height="18" class="line"/>
  <rect x="1360" y="340" width="280" height="10" class="line"/>
  <rect x="1400" y="370" width="200" height="38" class="btn"/>
  <text x="1500" y="395" text-anchor="middle" class="white" font-weight="700" font-size="13">Voir le menu →</text>

  <rect x="1320" y="450" width="360" height="40" class="btn-outline"/>
  <text x="1500" y="476" text-anchor="middle" fill="#e3350d" font-weight="700">☰ Filtres (2 actifs)</text>
  <text x="1320" y="512" class="small" font-size="11">bouton d-lg-none → affiche / masque la sidebar (useState)</text>
  <rect x="1320" y="524" width="360" height="90" class="zone" stroke-dasharray="6 4"/>
  <text x="1500" y="562" text-anchor="middle" class="small">Sidebar repliée</text>
  <text x="1500" y="582" text-anchor="middle" class="small" font-size="11">(mêmes blocs, disposition verticale)</text>

  <text x="1320" y="642" class="tag">Grille : 1 colonne (2 en tablette)</text>
  <rect x="1320" y="654" width="360" height="290" class="card"/>
  <rect x="1321" y="655" width="358" height="130" class="img"/>
  <rect x="1334" y="806" width="180" height="14" class="line"/><rect x="1610" y="806" width="56" height="14" class="line"/>
  <rect x="1334" y="834" width="330" height="10" class="line"/>
  <rect x="1334" y="860" width="70" height="22" class="chip"/><rect x="1410" y="860" width="60" height="22" class="chip"/>
  <rect x="1334" y="896" width="200" height="36" class="btn"/><rect x="1542" y="896" width="124" height="36" class="btn-outline"/>
  <rect x="1320" y="960" width="360" height="200" class="card"/>
  <rect x="1321" y="961" width="358" height="130" class="img"/>
  <rect x="1334" y="1110" width="180" height="14" class="line"/><rect x="1610" y="1110" width="56" height="14" class="line"/>
  <text x="1500" y="1190" text-anchor="middle" class="small">… À propos, Contact, Footer en colonne</text>
  <rect x="1300" y="1220" width="400" height="80" class="zone-navy"/>
  <text x="1500" y="1266" text-anchor="middle" class="white" font-size="12">© année dynamique PokéBistro</text>

  <!-- ===================== MODAL PANIER ===================== -->
  <rect x="1300" y="1380" width="400" height="760" fill="#111827" opacity="0.35" rx="12"/>
  <text x="1300" y="2165" class="small">Modal panier (Bootstrap .modal, ouverture pilotée par isCartOpen — useState)</text>
  <rect x="1324" y="1420" width="352" height="680" class="card"/>
  <text x="1340" y="1450" class="label" font-size="18">Votre panier (3 articles)</text>
  <text x="1650" y="1452" font-size="20" fill="#6b7280">✕</text>
  <line x1="1324" y1="1470" x2="1676" y2="1470" stroke="#e5e7eb" stroke-width="2"/>

  <!-- Cart item 1 -->
  <rect x="1340" y="1486" width="320" height="120" fill="#f9fafb" stroke="#e5e7eb" rx="8"/>
  <rect x="1350" y="1496" width="60" height="60" class="img"/>
  <text x="1420" y="1514" class="label">Pikachu Bento</text>
  <text x="1420" y="1534" class="small">12,90 € l'unité</text>
  <rect x="1420" y="1548" width="30" height="28" class="input"/><text x="1431" y="1568" font-weight="700">−</text>
  <text x="1462" y="1568" font-weight="700">2</text>
  <rect x="1476" y="1548" width="30" height="28" class="input"/><text x="1486" y="1568" font-weight="700">+</text>
  <text x="1650" y="1568" text-anchor="end" font-weight="700">25,80 €</text>
  <text x="1650" y="1596" text-anchor="end" fill="#e3350d" font-size="12">🗑 Supprimer</text>
  <text x="1350" y="1596" class="small" font-size="11">Sous-total = prix × quantité</text>

  <!-- Cart item 2 -->
  <rect x="1340" y="1620" width="320" height="120" fill="#f9fafb" stroke="#e5e7eb" rx="8"/>
  <rect x="1350" y="1630" width="60" height="60" class="img"/>
  <text x="1420" y="1648" class="label">Salamèche Burger</text>
  <text x="1420" y="1668" class="small">13,90 € l'unité</text>
  <rect x="1420" y="1682" width="30" height="28" class="input"/><text x="1431" y="1702" font-weight="700">−</text>
  <text x="1462" y="1702" font-weight="700">1</text>
  <rect x="1476" y="1682" width="30" height="28" class="input"/><text x="1486" y="1702" font-weight="700">+</text>
  <text x="1650" y="1702" text-anchor="end" font-weight="700">13,90 €</text>
  <text x="1650" y="1730" text-anchor="end" fill="#e3350d" font-size="12">🗑 Supprimer</text>

  <text x="1340" y="1780" class="tag">CART ITEM ×N (− / + / supprimer → dispatch)</text>

  <line x1="1340" y1="1800" x2="1660" y2="1800" stroke="#111827" stroke-width="2"/>
  <text x="1340" y="1832" class="label" font-size="18">Total</text>
  <text x="1660" y="1832" text-anchor="end" fill="#e3350d" font-weight="700" font-size="20">39,70 €</text>
  <text x="1340" y="1856" class="small" font-size="11">recalculé automatiquement depuis le state du reducer</text>

  <rect x="1340" y="1890" width="150" height="40" class="btn-outline"/>
  <text x="1415" y="1916" text-anchor="middle" fill="#e3350d" font-weight="700" font-size="13">Vider le panier</text>
  <rect x="1510" y="1890" width="150" height="40" class="btn"/>
  <text x="1585" y="1916" text-anchor="middle" class="white" font-weight="700" font-size="13">Commander</text>

  <rect x="1340" y="1960" width="320" height="110" fill="#fff8e1" stroke="#ffcb05" rx="8" stroke-dasharray="6 4"/>
  <text x="1500" y="2000" text-anchor="middle" class="label">État vide</text>
  <text x="1500" y="2024" text-anchor="middle" class="small">« Votre panier est vide »</text>
  <text x="1500" y="2046" text-anchor="middle" class="small" font-size="11">+ bouton « Voir le menu » (ferme la modal)</text>
</svg>
